<?xml version="1.0" standalone="no"?>
<!DOCTYPE svg PUBLIC "-//W3C//DTD SVG 20010904//EN"
 "http://www.w3.org/TR/2001/REC-SVG-20010904/DTD/svg10.dtd">
<svg version="1.0" xmlns="http://www.w3.org/2000/svg"
 width="817.000000pt" height="817.000000pt" viewBox="0 0 817.000000 817.000000"
 preserveAspectRatio="xMidYMid meet">

<g transform="translate(0.000000,817.000000) scale(0.100000,-0.100000)"
fill="#000000" stroke="none">
<path d="M0 4085 l0 -4085 4085 0 4085 0 0 4085 0 4085 -4085 0 -4085 0 0
-4085z m2200 1719 c33 -18 68 -48 93 -82 56 -74 101 -95 191 -90 81 4 114 23
153 87 41 70 143 121 237 121 94 -1 185 -50 233 -126 38 -59 85 -84 163 -84
82 0 121 20 174 89 126 164 354 159 471 -9 39 -56 88 -80 165 -80 78 0 129 25
169 84 113 164 343 167 467 6 54 -70 92 -90 172 -90 80 0 130 26 177 92 61 84
147 124 250 115 152 -12 257 -127 257 -281 0 -95 -36 -164 -116 -225 -65 -49
-95 -102 -96 -166 0 -77 14 -102 129 -214 120 -120 152 -137 232 -128 67 8
103 30 146 88 108 143 294 165 425 50 58 -51 88 -121 88 -205 -1 -144 -85
-246 -229 -277 -104 -22 -212 24 -284 120 -42 57 -72 76 -138 86 -81 12 -125
-8 -209 -95 -41 -43 -91 -85 -111 -93 -129 -53 -262 -15 -348 99 -51 68 -90
88 -171 88 -81 0 -119 -19 -175 -92 -22 -28 -59 -65 -83 -82 -112 -80 -109
-252 5 -334 84 -60 124 -134 124 -228 1 -104 -40 -184 -123 -244 -119 -85
-119 -253 0 -338 85 -62 124 -133 124 -233 0 -106 -59 -205 -156 -256 -63 -33
-183 -31 -251 5 -51 27 -89 62 -120 111 -27 43 -84 67 -157 67 -76 0 -122 -24
-167 -87 -17 -24 -50 -57 -74 -74 -65 -47 -87 -91 -87 -172 0 -38 5 -78 11
-90 6 -12 47 -56 90 -97 68 -66 80 -82 95 -134 50 -178 -64 -347 -246 -363
-76 -7 -145 16 -206 70 -137 120 -125 326 26 442 66 51 90 98 90 176 0 70 -20
107 -97 174 -82 73 -113 133 -113 221 0 104 38 179 123 241 57 42 86 97 87
162 0 81 -18 116 -93 183 -86 77 -117 135 -117 224 0 106 36 177 124 242 59
43 85 96 86 170 0 73 -20 109 -96 176 -35 32 -71 70 -79 86 -31 60 -132 92
-216 70 -34 -10 -60 -29 -119 -90 -42 -44 -93 -86 -115 -96 -53 -22 -167 -23
-218 -1 -133 58 -203 202 -163 338 18 65 51 110 117 161 62 49 80 83 80 161 1
80 -10 107 -62 148 -51 41 -96 86 -128 129 -31 42 -76 60 -146 60 -74 0 -123
-26 -169 -89 -56 -80 -136 -121 -231 -121 -110 0 -203 58 -251 157 -59 120
-25 265 80 344 64 49 97 59 182 55 55 -2 82 -9 124 -32z m3959 -79 c101 -51
121 -180 40 -257 -67 -64 -156 -64 -220 1 -102 102 -31 269 114 271 21 0 51
-7 66 -15z m-4050 -832 c70 -52 90 -136 51 -213 -49 -96 -190 -107 -262 -21
-88 104 3 272 141 258 24 -3 55 -14 70 -24z m2431 -2434 c69 -39 98 -127 66
-202 -19 -45 -54 -74 -107 -88 -41 -11 -53 -10 -93 5 -68 26 -101 74 -101 147
0 65 18 98 75 137 43 29 109 29 160 1z"/>
<path d="M3175 5470 c-25 -12 -51 -37 -68 -65 -16 -24 -51 -61 -79 -81 -57
-42 -87 -97 -88 -159 0 -79 14 -103 135 -221 103 -101 119 -113 160 -120 86
-12 163 15 196 70 11 19 51 61 89 95 50 45 72 72 80 99 26 97 -1 180 -80 236
-26 19 -62 55 -80 80 -17 26 -49 55 -70 66 -52 27 -141 27 -195 0z"/>
<path d="M3984 5470 c-22 -11 -54 -40 -71 -64 -18 -25 -54 -62 -82 -82 -63
-47 -82 -85 -82 -168 -1 -81 16 -115 86 -166 29 -22 68 -60 85 -85 35 -51 71
-73 132 -81 83 -11 119 8 232 119 57 56 108 113 115 125 7 13 13 52 13 86 2
77 -23 125 -93 179 -27 20 -60 56 -75 78 -47 75 -171 103 -260 59z"/>
<path d="M4788 5467 c-20 -12 -53 -43 -72 -69 -20 -26 -56 -61 -80 -77 -51
-35 -75 -81 -80 -149 -6 -80 12 -111 127 -226 106 -105 140 -126 207 -126 68
0 101 21 210 130 124 123 136 148 120 243 -11 69 -20 82 -88 136 -28 23 -64
59 -78 81 -52 78 -185 107 -266 57z"/>
<path d="M4002 4669 c-27 -10 -223 -203 -240 -236 -15 -28 -16 -148 -1 -175
19 -35 215 -227 244 -238 34 -13 116 -13 150 0 30 12 225 202 245 240 7 13 13
52 13 85 1 76 -26 126 -90 174 -25 18 -59 53 -76 77 -40 56 -96 84 -168 83
-30 0 -64 -4 -77 -10z"/>
<path d="M3985 3852 c-16 -11 -51 -43 -77 -74 -25 -30 -62 -65 -82 -78 -54
-37 -76 -86 -76 -165 0 -36 5 -76 11 -87 19 -35 217 -228 244 -238 34 -13 116
-13 150 0 28 11 225 203 244 237 27 52 18 167 -17 208 -10 11 -39 38 -66 59
-27 22 -58 55 -69 73 -31 53 -92 83 -168 83 -44 0 -73 -6 -94 -18z"/>
</g>
</svg>
